<!-- icons.svg -->
<svg xmlns="http://www.w3.org/2000/svg" style="display:none">
  <!-- Calendar icon -->
  <symbol id="icon-calendar" viewBox="0 0 24 24">
    <path d="M19 4h-1V2h-2v2H8V2H6v2H5c-1.1 0-2 
    .9-2 2v14c0 1.1.9 2 2 2h14c1.1 
    0 2-.9 2-2V6c0-1.1-.9-2-2-2zm0 
    16H5V9h14v11z"/>
  </symbol>

  <!-- Location pin icon -->
  <symbol id="icon-location" viewBox="0 0 24 24">
    <path d="M12 2C8.13 2 5 5.13 5 
    9c0 5.25 7 13 7 13s7-7.75 
    7-13c0-3.87-3.13-7-7-7zm0 
    9.5c-1.38 0-2.5-1.12-2.5-2.5S10.62 
    6.5 12 6.5s2.5 1.12 2.5 2.5S13.38 
    11.5 12 11.5z"/>
  </symbol>
</svg>
